<?xml version="1.0" encoding="UTF-8" standalone="no"?>
<!-- Created with Inkscape (http://www.inkscape.org/) -->

<svg
   xmlns:dc="http://purl.org/dc/elements/1.1/"
   xmlns:cc="http://creativecommons.org/ns#"
   xmlns:rdf="http://www.w3.org/1999/02/22-rdf-syntax-ns#"
   xmlns:svg="http://www.w3.org/2000/svg"
   xmlns="http://www.w3.org/2000/svg"
   xmlns:xlink="http://www.w3.org/1999/xlink"
   xmlns:sodipodi="http://sodipodi.sourceforge.net/DTD/sodipodi-0.dtd"
   xmlns:inkscape="http://www.inkscape.org/namespaces/inkscape"
   width="30"
   height="24.000002"
   id="svg2"
   version="1.1"
   inkscape:version="0.48.2 r9819"
   sodipodi:docname="dagfin.svg"
   inkscape:export-filename="/home/draklaw/tmp/dagfin/assets-src/sprites/dagfin5x4/5.png"
   inkscape:export-xdpi="479.99997"
   inkscape:export-ydpi="479.99997">
  <defs
     id="defs4">
    <inkscape:path-effect
       effect="skeletal"
       id="path-effect3835"
       is_visible="true"
       pattern="#path2987-6"
       copytype="repeated_stretched"
       prop_scale="1"
       scale_y_rel="false"
       spacing="0"
       normal_offset="0"
       tang_offset="11"
       prop_units="false"
       vertical_pattern="true"
       fuse_tolerance="0" />
  </defs>
  <sodipodi:namedview
     id="base"
     pagecolor="#ffffff"
     bordercolor="#666666"
     borderopacity="1.0"
     inkscape:pageopacity="0.0"
     inkscape:pageshadow="2"
     inkscape:zoom="15.839192"
     inkscape:cx="1.8962878"
     inkscape:cy="3.1754468"
     inkscape:document-units="px"
     inkscape:current-layer="layer1"
     showgrid="false"
     inkscape:window-width="1920"
     inkscape:window-height="1116"
     inkscape:window-x="0"
     inkscape:window-y="30"
     inkscape:window-maximized="1"
     fit-margin-top="2"
     fit-margin-left="5"
     fit-margin-right="5"
     fit-margin-bottom="2">
    <inkscape:grid
       type="xygrid"
       id="grid2985"
       empspacing="5"
       visible="true"
       enabled="true"
       snapvisiblegridlinesonly="true" />
  </sodipodi:namedview>
  <metadata
     id="metadata7">
    <rdf:RDF>
      <cc:Work
         rdf:about="">
        <dc:format>image/svg+xml</dc:format>
        <dc:type
           rdf:resource="http://purl.org/dc/dcmitype/StillImage" />
        <dc:title></dc:title>
      </cc:Work>
    </rdf:RDF>
  </metadata>
  <g
     inkscape:label="Layer 1"
     inkscape:groupmode="layer"
     id="layer1"
     transform="translate(-315,-317.86218)">
    <path
       sodipodi:type="arc"
       style="fill:#800000;fill-opacity:1;stroke:none"
       id="path3931"
       sodipodi:cx="330"
       sodipodi:cy="339.86218"
       sodipodi:rx="10"
       sodipodi:ry="2.5"
       d="m 340,339.86218 c 0,1.38071 -4.47715,2.5 -10,2.5 -5.52285,0 -10,-1.11929 -10,-2.5 0,-1.38071 4.47715,-2.5 10,-2.5 5.52285,0 10,1.11929 10,2.5 z"
       transform="translate(0,-2.5)" />
    <path
       style="fill:#800000;fill-opacity:1;stroke:none"
       d="m 320,337.36218 c 5,0 5,-15 10,-15 5,0 5,15 10,15"
       id="path2987"
       inkscape:connector-curvature="0" />
    <path
       style="fill:#ffffff;stroke:none"
       d="m 326,329.69551 c 1.33334,2.66667 1.33334,2.66667 4,2.66667 2.66666,0 2.66666,0 4,-2.66667 -1.33334,6.66667 -1.33334,4 -4,4 -2.66666,0 -2.66666,2.66667 -4,-4 z"
       id="path3849"
       inkscape:connector-curvature="0" />
    <path
       style="fill:#000000;fill-opacity:1;stroke:none"
       d="m 324.81789,323.54355 c 0.27367,0.15071 0.33694,0.52165 0.3262,0.98486 -0.0107,0.46322 -0.0926,1.0222 -0.14738,1.57217 -0.10964,1.09995 -0.12448,2.15986 0.46903,2.3601 0.59352,0.20023 1.205,-0.66051 1.84765,-1.42566 0.32133,-0.38258 0.65284,-0.73907 0.97604,-0.95111 0.32321,-0.21205 0.63359,-0.27968 0.90727,-0.12896 M 330,319.86218 c 0,0.29248 -0.4582,0.51669 -0.97905,0.83379 -0.52085,0.3171 -1.10805,0.75441 -1.52379,1.30755 -0.37949,0.5245 -0.63565,1.06415 -0.74674,1.52501 -0.11108,0.46086 -0.0876,0.83884 0.0796,1.06563 0,0 0,0 0,0 0.0469,0.0636 0.10556,0.11562 0.17723,0.15509 0.0717,0.0395 0.14694,0.0613 0.22515,0.0684 0,0 0,0 0,0 0.55769,0.0518 1.2769,-0.65378 1.95009,-0.8078 0.30248,-0.0502 0.5651,-5.7e-4 0.69646,0.15522 0.13136,0.15578 0.12101,0.40458 0.12101,0.69706"
       id="path2987-8"
       inkscape:connector-curvature="0"
       sodipodi:nodetypes="cc"
       inkscape:path-effect="#path-effect3835"
       inkscape:original-d="m 320,337.36218 c 5,0 5,-15 10,-15" />
    <path
       style="fill:none;stroke:#000000;stroke-width:0.25px;stroke-linecap:butt;stroke-linejoin:miter;stroke-opacity:1"
       d="m 290,362.36218 c 1.25,0 1.25,-3.75 2.5,-3.75 1.25,0 1.25,3.75 2.5,3.75"
       id="path2987-6"
       inkscape:connector-curvature="0" />
    <use
       x="0"
       y="0"
       xlink:href="#path2987-8"
       id="use3811"
       inkscape:transform-center-x="-5.5"
       inkscape:transform-center-y="2.4999974"
       width="744.09448"
       height="1052.3622"
       transform="matrix(-1,0,0,1,660,2.6171874e-6)" />
    <g
       id="g3855"
       transform="matrix(0.13333341,0,0,0.13333341,290.66664,282.38053)"
       style="fill:#00d400;fill-opacity:1;stroke:none">
      <path
         inkscape:transform-center-y="1.1111085"
         inkscape:transform-center-x="20"
         inkscape:connector-curvature="0"
         id="path3851"
         d="m 265,332.36218 c 5,5 5,5 10,5 5,0 10,5 10,5 0,0 -10,5 -15,0 -5,-5 0,-5 -5,-10 z"
         style="fill:#00d400;fill-opacity:1;stroke:none" />
      <use
         height="1052.3622"
         width="744.09448"
         transform="matrix(-1,0,0,1,590,0)"
         id="use3853"
         inkscape:transform-center-y="1.1111085"
         inkscape:transform-center-x="-20"
         xlink:href="#path3851"
         y="0"
         x="0"
         style="fill:#00d400;fill-opacity:1;stroke:none" />
    </g>
  </g>
</svg>
